<?xml version="1.0" encoding="utf-8"?>
<!-- keep the file name & path exactly as before -->
<svg width="948" height="840" viewBox="0 0 948 840"
     fill="none" xmlns="http://www.w3.org/2000/svg">

  <!-- ▼ OUTER OUTLINE – *only* this element was touched ▼ -->
  <!--   • id="outline"  (so JS can grab it)                -->
  <!--   • data-squish="…" (ditto2’s outline path)          -->
  <path id="outline"
        d="M541.067 832.113L568.906 827.051H597.589L619.523 812.71L653.267 806.805H682.793L711.476 817.772L743.533 832.113H767.155L801.743 838.018L828.738 832.113L855.734 827.051L871.762 817.772L892.009 801.743L901.289 772.217L910.568 732.567V688.699V645.675L901.289 616.992L881.042 577.343L855.734 532.631L843.923 512.385L838.861 487.92L843.923 467.673L863.326 441.521L881.042 424.649L901.289 401.872L919.004 380.781L932.502 354.629L940.095 333.539L946 309.918L940.095 288.828L924.91 265.207L892.009 243.273L855.734 226.4L816.084 206.154L767.155 188.438L733.41 174.94L725.818 150.476L711.476 124.324L698.822 104.921L682.793 85.5175L670.983 68.6453L653.267 50.9294L636.395 39.9625L619.523 26.4647L591.683 20.5594H526.725L487.076 32.37L452.488 39.9625L423.805 32.37L380.781 20.5594L318.354 7.90528L282.922 2L255.926 7.90528L230.618 26.4647L206.997 50.9294L185.907 79.6122L171.565 110.826L150.475 143.727L133.603 168.191L110.825 188.438L82.1425 206.154L55.9906 226.4L34.0567 243.273L17.1845 255.927L9.59198 280.392V333.539L17.1845 363.909L34.0567 392.592L44.1801 417.057C52.3238 423.59 55.9906 424.649 55.9906 441.521C55.9906 458.393 65.5641 454.23 65.2703 467.673L72.8628 487.92V503.948L65.2703 555.409L55.9906 586.622L44.1801 616.992L28.1514 645.675L9.59198 675.201L1.99951 701.353V732.567L9.59198 758.719L28.1514 782.34L55.9906 801.743L88.8914 816.711L133.603 825.991L185.907 817.772L206.997 812.71L230.618 806.805L296.42 793.307C307.945 797.802 316.095 800.887 331.851 806.805L371.501 817.772L452.488 827.051L481.17 832.113H515.758H541.067Z"
        data-squish="M541.067 315.786L568.906 313.873H597.589L619.523 308.452L653.267 306.22H682.793L711.476 310.365L743.533 315.786H767.155L801.743 318.018L828.738 315.786L855.734 313.873L871.762 310.365L892.009 304.306L901.289 293.145L910.568 278.157V261.575V245.312L901.289 234.47L881.042 219.482L855.734 202.581L843.923 194.927L838.861 185.68L843.923 178.026L863.326 168.141L881.042 161.763L901.289 153.153L919.004 145.181L932.502 135.295L940.095 127.323L946 118.394L940.095 110.422L924.91 101.493L892.009 93.2021L855.734 86.8243L816.084 79.171L767.155 72.4743L733.41 67.3721L725.818 58.1244L711.476 48.2388L698.822 40.9044L682.793 33.5699L670.983 27.1922L653.267 20.4955L636.395 16.35L619.523 11.2478L591.683 9.01554H526.725L487.076 13.48L452.488 16.35L423.805 13.48L380.781 9.01554L318.354 4.23222L282.922 2L255.926 4.23222L230.618 11.2478L206.997 20.4955L185.907 31.3377L171.565 43.1366L150.475 55.5732L133.603 64.821L110.825 72.4743L82.1425 79.171L55.9906 86.8243L34.0567 93.2021L17.1845 97.9854L9.59198 107.233V127.323L17.1845 138.803L34.0567 149.645L44.1801 158.893C52.3238 161.363 55.9906 161.763 55.9906 168.141C55.9906 174.519 65.5641 172.945 65.2703 178.026L72.8628 185.68V191.739L65.2703 211.191L55.9906 222.99L44.1801 234.47L28.1514 245.312L9.59198 256.473L1.99951 266.358V278.157L9.59198 288.043L28.1514 296.972L55.9906 304.306L88.8914 309.964L133.603 313.472L185.907 310.365L206.997 308.452L230.618 306.22L296.42 301.117C307.945 302.816 316.095 303.983 331.851 306.22L371.501 310.365L452.488 313.873L481.17 315.786H515.758H541.067Z"
        fill="#EFAACA" stroke="black" stroke-width="3"/>


</svg>
